<svg xmlns="http://www.w3.org/2000/svg" enable-background="new 0 0 100 100" viewBox="0 0 100 100"><path fill="#b92b27" d="M70.89,80.696c11.552-7.287,19.422-20.33,19.394-36.132c0-30.317-19.634-41.086-40.157-41.086
			c-59.584,2.756-50.551,95.648,9.192,82.02c8.089,14.455,20.137,10.957,23.246,9.818c0,0-0.417-2.544-1.147-7.279
			C75.606,87.889,73.016,84.972,70.89,80.696z M44.373,62.583c0,0,0.316,2.351,0.969,6.625c5.454-0.002,8.154,2.826,10.041,6.479
			c-1.682,0.652-3.765,0.653-5.525,0.716c-9.555,0-20.998-4.127-20.998-29.881c0-25.749,11.984-32.859,21.54-32.859
			c9.553,0,20.665,6.128,20.665,31.879c-0.056,11.636-2.289,19.295-5.964,23.723C57.155,59.013,46.845,61.47,44.373,62.583z"/></svg>